<svg width="21" height="21" viewBox="0 0 21 21" fill="none" xmlns="http://www.w3.org/2000/svg">
<path d="M16.5199 0.5H4.14659C3.13577 0.501763 2.16686 0.904089 1.4521 1.61885C0.737341 2.3336 0.335014 3.30252 0.333252 4.31333V16.6867C0.335014 17.6975 0.737341 18.6664 1.4521 19.3812C2.16686 20.0959 3.13577 20.4982 4.14659 20.5H16.5199C17.5307 20.4982 18.4996 20.0959 19.2144 19.3812C19.9292 18.6664 20.3315 17.6975 20.3333 16.6867V4.31333C20.3315 3.30252 19.9292 2.3336 19.2144 1.61885C18.4996 0.904089 17.5307 0.501763 16.5199 0.5ZM18.9999 16.6867C18.9982 17.3439 18.7363 17.9736 18.2716 18.4383C17.8069 18.9031 17.1771 19.1649 16.5199 19.1667H4.14659C3.48939 19.1649 2.85961 18.9031 2.3949 18.4383C1.93019 17.9736 1.66834 17.3439 1.66659 16.6867V4.31333C1.66834 3.65614 1.93019 3.02636 2.3949 2.56165C2.85961 2.09694 3.48939 1.83509 4.14659 1.83333H16.5199C17.1771 1.83509 17.8069 2.09694 18.2716 2.56165C18.7363 3.02636 18.9982 3.65614 18.9999 4.31333V16.6867Z" fill="#100E2C"/>
<path d="M16.9326 11.8492C16.7381 11.8492 16.5516 11.9264 16.4141 12.064C16.2765 12.2015 16.1993 12.388 16.1993 12.5825V15.3325L5.49993 4.63317H8.24993C8.44443 4.63317 8.63095 4.55591 8.76848 4.41838C8.90601 4.28086 8.98327 4.09433 8.98327 3.89984C8.98327 3.70535 8.90601 3.51882 8.76848 3.38129C8.63095 3.24377 8.44443 3.1665 8.24993 3.1665H3.50527C3.37107 3.1665 3.24237 3.21981 3.14747 3.31471C3.05258 3.4096 2.99927 3.5383 2.99927 3.6725V8.41717C2.99927 8.61166 3.07653 8.79819 3.21406 8.93572C3.35158 9.07324 3.53811 9.1505 3.7326 9.1505C3.92709 9.1505 4.11362 9.07324 4.25115 8.93572C4.38867 8.79819 4.46593 8.61166 4.46593 8.41717V5.66717L15.1653 16.3665H12.4153C12.2208 16.3665 12.0342 16.4438 11.8967 16.5813C11.7592 16.7188 11.6819 16.9053 11.6819 17.0998C11.6819 17.2943 11.7592 17.4809 11.8967 17.6184C12.0342 17.7559 12.2208 17.8332 12.4153 17.8332H17.1599C17.2941 17.8332 17.4228 17.7799 17.5177 17.685C17.6126 17.5901 17.6659 17.4614 17.6659 17.3272V12.5825C17.6659 12.388 17.5887 12.2015 17.4511 12.064C17.3136 11.9264 17.1271 11.8492 16.9326 11.8492Z" fill="#100E2C"/>
</svg>
