<svg width="62" height="64" viewBox="0 0 62 64" fill="none" xmlns="http://www.w3.org/2000/svg">
<path d="M16.2049 43.0392H8.78768C8.10676 43.0392 7.55469 43.5913 7.55469 44.2722V54.0783C7.55469 54.7592 8.10676 55.3113 8.78768 55.3113H16.2049C16.8858 55.3113 17.4379 54.7592 17.4379 54.0783V44.2722C17.4379 43.5913 16.886 43.0392 16.2049 43.0392ZM14.9719 45.5052V47.9423H10.0207V45.5052H14.9719ZM10.0207 52.8453V50.4082H14.9719V52.8453H10.0207Z" fill="white"/>
<path d="M45.6998 55.3112H53.1683C53.8493 55.3112 54.4013 54.7591 54.4013 54.0782V44.2721C54.4013 43.5911 53.8493 43.0391 53.1683 43.0391H45.6998C45.0189 43.0391 44.4668 43.5911 44.4668 44.2721V54.0782C44.4668 54.7591 45.0189 55.3112 45.6998 55.3112ZM46.9328 52.8452V50.408H51.9353V52.8452H46.9328ZM51.9353 45.505V47.9422H46.9328V45.505H51.9353Z" fill="white"/>
<path d="M16.2049 25.7852H8.78768C8.10676 25.7852 7.55469 26.3372 7.55469 27.0181V36.8243C7.55469 37.5052 8.10676 38.0573 8.78768 38.0573H16.2049C16.8858 38.0573 17.4379 37.5052 17.4379 36.8243V27.0181C17.4379 26.3372 16.886 25.7852 16.2049 25.7852ZM14.9719 28.2511V30.6883H10.0207V28.2511H14.9719ZM10.0207 35.5913V33.1541H14.9719V35.5913H10.0207Z" fill="white"/>
<path d="M37.1138 27.0181C37.1138 26.3372 36.5618 25.7852 35.8808 25.7852H26.1197C25.4388 25.7852 24.8867 26.3372 24.8867 27.0181V36.8243C24.8867 37.5052 25.4388 38.0573 26.1197 38.0573H35.8808C36.5618 38.0573 37.1138 37.5052 37.1138 36.8243V27.0181ZM34.6479 28.2511V30.6883H27.3527V28.2511H34.6479ZM27.3525 35.5913V33.1541H34.6477V35.5913H27.3525Z" fill="white"/>
<path d="M45.6998 38.0573H53.1683C53.8493 38.0573 54.4013 37.5052 54.4013 36.8243V27.0181C54.4013 26.3372 53.8493 25.7852 53.1683 25.7852H45.6998C45.0189 25.7852 44.4668 26.3372 44.4668 27.0181V36.8243C44.4668 37.5054 45.0189 38.0573 45.6998 38.0573ZM46.9328 35.5913V33.1541H51.9353V35.5913H46.9328ZM51.9353 28.2511V30.6883H46.9328V28.2511H51.9353Z" fill="white"/>
<path d="M60.644 61.5341H59.3596V23.3733C59.3596 23.3329 59.3573 23.293 59.3536 23.2535H59.3854C59.4033 23.2535 59.4207 23.2516 59.4384 23.2509C59.4506 23.2512 59.4624 23.2538 59.4748 23.2538C59.586 23.2538 59.6993 23.2386 59.8117 23.2068C60.4669 23.0211 60.8474 22.3394 60.6617 21.6842L56.8471 8.23042C56.846 8.22672 56.8445 8.22317 56.8434 8.21947C56.8357 8.19312 56.8265 8.16738 56.8171 8.14179C56.8121 8.12839 56.8077 8.11467 56.8023 8.10157C56.793 8.07907 56.7825 8.05733 56.7722 8.03545C56.7648 8.01988 56.7577 8.00385 56.7497 7.98875C56.7406 7.97164 56.7303 7.95515 56.7204 7.93835C56.7095 7.91986 56.6988 7.90105 56.687 7.88333C56.6786 7.87069 56.6693 7.85898 56.6605 7.84665C56.6458 7.8263 56.6313 7.8058 56.6155 7.78654C56.6071 7.77637 56.5979 7.76681 56.5893 7.75695C56.572 7.73722 56.5549 7.71734 56.5364 7.69884C56.5256 7.6879 56.5139 7.67804 56.5026 7.66755C56.4854 7.65137 56.4683 7.63503 56.4502 7.61978C56.4344 7.60668 56.4176 7.59465 56.4011 7.58232C56.3866 7.57138 56.3724 7.55982 56.3575 7.54965C56.3362 7.53501 56.314 7.52206 56.2918 7.50881C56.2804 7.50203 56.2695 7.49463 56.2579 7.48815C56.2335 7.47459 56.2081 7.46272 56.1828 7.45086C56.1725 7.44608 56.1623 7.44053 56.1519 7.43591C56.1277 7.42543 56.1028 7.41649 56.0779 7.40755C56.0649 7.40292 56.0523 7.39768 56.0392 7.39337C56.0179 7.38659 55.9962 7.38119 55.9745 7.37549C55.9566 7.37071 55.9387 7.36563 55.9207 7.36162C55.9033 7.35792 55.8855 7.3553 55.8678 7.35237C55.8445 7.34852 55.8213 7.34436 55.7977 7.34174C55.7832 7.3402 55.7684 7.33958 55.7538 7.3385C55.7269 7.3365 55.7001 7.33465 55.673 7.33434C55.669 7.33434 55.6651 7.33372 55.6611 7.33372H43.3569V6.17964C43.3569 5.69246 43.0701 5.25104 42.625 5.05299L31.5019 0.106384C31.1831 -0.03541 30.8194 -0.03541 30.5004 0.106076L19.4035 5.03419C18.958 5.23193 18.6709 5.67365 18.6709 6.16115V7.33372H6.36671C6.36286 7.33372 6.35916 7.33434 6.35531 7.33434C6.32726 7.33449 6.29967 7.3365 6.27193 7.3385C6.25821 7.33958 6.24449 7.34004 6.23093 7.34158C6.20612 7.34436 6.18161 7.34852 6.15711 7.35283C6.14061 7.35576 6.12412 7.35792 6.10794 7.36146C6.08821 7.36578 6.06895 7.37133 6.04953 7.37657C6.02934 7.38196 6.00915 7.3869 5.98942 7.39321C5.97432 7.39815 5.95967 7.40416 5.94488 7.40955C5.92207 7.41787 5.8991 7.42589 5.87675 7.4356C5.86381 7.4413 5.85148 7.44793 5.83884 7.45394C5.81588 7.46488 5.79276 7.47567 5.77072 7.48785C5.75669 7.49555 5.74344 7.50449 5.72972 7.51281C5.70999 7.52484 5.69011 7.53624 5.67115 7.54934C5.65389 7.56105 5.63771 7.57416 5.62106 7.58679C5.60673 7.59774 5.59193 7.60806 5.57822 7.61962C5.55864 7.63581 5.54015 7.65353 5.52165 7.6711C5.51179 7.68035 5.50146 7.68913 5.49191 7.69869C5.47264 7.71795 5.45476 7.73876 5.43673 7.75941C5.42872 7.76851 5.42039 7.77714 5.41269 7.78654C5.39635 7.80642 5.3814 7.82738 5.36645 7.84834C5.35797 7.86006 5.34919 7.87131 5.34117 7.88333C5.32915 7.90136 5.31836 7.92047 5.30711 7.93928C5.2974 7.95561 5.28723 7.9718 5.27829 7.98875C5.27028 8.00401 5.26319 8.02004 5.25563 8.0356C5.24515 8.05749 5.23467 8.07907 5.22558 8.10157C5.22019 8.11467 5.21572 8.12839 5.21094 8.14179C5.20154 8.16738 5.19229 8.19312 5.18458 8.21947C5.18351 8.22317 5.18196 8.22672 5.18088 8.23042L1.36631 21.6842C1.36323 21.6952 1.36154 21.7061 1.35876 21.7169C1.35244 21.7415 1.34643 21.7662 1.34166 21.7915C1.3378 21.8115 1.33534 21.8316 1.33241 21.8516C1.32979 21.871 1.32686 21.8901 1.32516 21.9098C1.3227 21.936 1.32193 21.9622 1.32116 21.9883C1.32085 21.9991 1.31946 22.0096 1.31946 22.0204C1.31946 22.0241 1.31992 22.0278 1.32008 22.0315C1.32039 22.0597 1.32208 22.0876 1.32424 22.1153C1.32532 22.1289 1.32578 22.1426 1.32732 22.1561C1.3301 22.1808 1.33426 22.2051 1.33857 22.2297C1.34135 22.2461 1.34381 22.2629 1.3472 22.2793C1.35136 22.2987 1.35691 22.3177 1.362 22.3368C1.36739 22.3573 1.37248 22.3779 1.37895 22.398C1.38358 22.4124 1.38943 22.4266 1.39467 22.441C1.40315 22.4644 1.41147 22.488 1.42134 22.5108C1.42658 22.5228 1.43274 22.5342 1.43829 22.5461C1.44954 22.57 1.46079 22.594 1.47359 22.617C1.48067 22.6298 1.48884 22.6421 1.4964 22.6546C1.50888 22.6754 1.52121 22.6965 1.53493 22.7165C1.54602 22.7327 1.55835 22.748 1.57022 22.7635C1.58178 22.779 1.59288 22.7947 1.60521 22.8095C1.62093 22.8284 1.63804 22.8461 1.65499 22.8642C1.66485 22.8747 1.6741 22.8856 1.68427 22.8958C1.70308 22.9146 1.72327 22.932 1.7433 22.9496C1.75301 22.958 1.76226 22.967 1.77228 22.9752C1.79154 22.9909 1.81189 23.0054 1.83208 23.02C1.84456 23.0289 1.85643 23.0383 1.86922 23.047C1.88679 23.0585 1.90513 23.069 1.92332 23.0798C1.94027 23.09 1.95707 23.1005 1.97464 23.1097C1.98944 23.1176 2.00485 23.1243 2.02011 23.1316C2.04246 23.1422 2.06465 23.153 2.08762 23.1624C2.10025 23.1675 2.11335 23.1718 2.12615 23.1766C2.15235 23.1863 2.17855 23.1955 2.20552 23.2036C2.20906 23.2046 2.21246 23.2062 2.216 23.2071C2.22217 23.2088 2.22818 23.2093 2.23434 23.211C2.27549 23.2219 2.31757 23.2307 2.36041 23.2375C2.37429 23.2396 2.388 23.2421 2.40172 23.2438C2.44657 23.2492 2.49204 23.2527 2.53812 23.2532C2.54305 23.2532 2.54798 23.2543 2.55292 23.2543C2.55415 23.2543 2.55538 23.254 2.55661 23.254H2.64231V61.5341H1.35799C0.677072 61.5341 0.125 62.0861 0.125 62.767C0.125 63.448 0.677072 64 1.35799 64H60.6444C61.3253 64 61.8774 63.448 61.8774 62.767C61.8774 62.0861 61.325 61.5341 60.644 61.5341ZM56.8937 23.3733V61.5341H42.0079V23.2535H56.8998C56.896 23.293 56.8937 23.3327 56.8937 23.3733ZM27.3532 54.2119C27.6693 54.2051 27.9763 54.0761 28.1998 53.8525C28.4294 53.6229 28.5604 53.3054 28.5604 52.9802C28.5604 52.655 28.4294 52.3375 28.1998 52.1078C27.9763 51.8842 27.6693 51.7552 27.3532 51.7484V45.5052H34.6483V61.5341H27.3532V54.2119ZM35.8815 43.0392H26.1203C25.4394 43.0392 24.8873 43.5912 24.8873 44.2722V61.5341H22.3443V11.3792L31.0007 7.53501L39.5421 11.3335V61.5341H37.1146V44.2722C37.1145 43.5912 36.5624 43.0392 35.8815 43.0392ZM54.7287 9.79971L57.8441 20.7875H42.0079V12.3592C42.0464 12.3628 42.085 12.3653 42.1235 12.3653C42.3584 12.3653 42.5923 12.2981 42.7953 12.1661C43.1453 11.9386 43.3566 11.5496 43.3566 11.1323V9.79971H54.7287ZM21.1369 6.96259L31.0005 2.58239L40.8905 6.98078V9.23469L31.5019 5.05931C31.3424 4.98842 31.1716 4.95297 31.0008 4.95297C30.8304 4.95297 30.6597 4.98826 30.5004 5.05901L21.1369 9.21712V6.96259ZM19.2319 12.1475C19.4276 12.2746 19.6519 12.3394 19.8781 12.344V20.7874H4.18324L7.2987 9.79955H18.6709V11.1136C18.6709 11.531 18.882 11.92 19.2319 12.1475ZM5.10798 23.2535H19.8781V61.5341H5.10798V23.2535Z" fill="white"/>
<path d="M31.0004 22.0418C33.7447 22.0418 35.9774 19.8092 35.9774 17.0649C35.9774 14.3205 33.7447 12.0879 31.0004 12.0879C28.2561 12.0879 26.0234 14.3205 26.0234 17.0649C26.0234 19.8092 28.2562 22.0418 31.0004 22.0418ZM31.0004 14.554C32.3849 14.554 33.5114 15.6804 33.5114 17.065C33.5114 18.4497 32.3851 19.576 31.0004 19.576C29.6158 19.576 28.4894 18.4497 28.4894 17.065C28.4894 15.6804 29.6159 14.554 31.0004 14.554Z" fill="white"/>
</svg>
