<svg width="25" height="25" viewBox="0 0 25 25" fill="none" xmlns="http://www.w3.org/2000/svg">
<g clip-path="url(#clip0_2366_965)">
<path d="M23.9636 13.2975H23.0542H6.28519V5.39796C6.28519 4.35672 7.13226 3.50964 8.17345 3.50964C8.99686 3.50964 9.69844 4.03961 9.95606 4.77625C8.6699 5.01039 7.69139 6.13811 7.69139 7.49088V8.17277C7.69139 8.56108 8.0062 8.87589 8.39451 8.87589H13.1352C13.5235 8.87589 13.8383 8.56108 13.8383 8.17277V7.49088C13.8383 6.07914 12.7727 4.91233 11.4037 4.75071C11.1022 3.24297 9.76851 2.10339 8.17345 2.10339C6.35686 2.10339 4.87894 3.58132 4.87894 5.39796V13.2975H2.27925H1.36987C0.981561 13.2975 0.666748 13.6123 0.666748 14.0006C0.666748 14.389 0.981561 14.7038 1.36987 14.7038H1.70972L2.36817 17.8066C2.60817 18.9378 3.23522 19.9615 4.13372 20.6894C4.18795 20.7333 4.24308 20.7759 4.29895 20.8174L3.71353 21.8454C3.52134 22.1828 3.63909 22.6121 3.97654 22.8043C4.08637 22.8669 4.2059 22.8966 4.32384 22.8966C4.56829 22.8966 4.80586 22.7688 4.93547 22.5413L5.53401 21.4903C6.1019 21.7045 6.70739 21.8181 7.32019 21.8181H18.0133C18.6261 21.8181 19.2316 21.7045 19.7995 21.4903L20.398 22.5413C20.5277 22.7689 20.7652 22.8966 21.0097 22.8966C21.1276 22.8966 21.2471 22.8668 21.357 22.8043C21.6944 22.6121 21.8122 22.1828 21.62 21.8454L21.0345 20.8174C21.0904 20.7759 21.1456 20.7333 21.1998 20.6894C22.0983 19.9615 22.7253 18.9378 22.9653 17.8066L23.6238 14.7038H23.9636C24.3519 14.7038 24.6667 14.389 24.6667 14.0006C24.6667 13.6123 24.3519 13.2975 23.9636 13.2975ZM12.4319 7.4696H9.09783C9.10922 6.73291 9.71203 6.13708 10.4513 6.13708H11.0783C11.8177 6.13708 12.4205 6.73291 12.4319 7.4696ZM21.5897 17.5147C21.2335 19.1935 19.7294 20.4119 18.0133 20.4119H7.32019C5.60409 20.4119 4.09997 19.1935 3.74372 17.5147L3.14723 14.7038H22.1862L21.5897 17.5147Z" fill="#100E2C"/>
<path d="M12.1336 9.86035C12.133 9.86035 12.1325 9.86035 12.1319 9.86035C11.7435 9.86129 11.4295 10.1768 11.4304 10.5652L11.4332 11.7199C11.4341 12.1076 11.7487 12.4214 12.1363 12.4214H12.138C12.5263 12.4204 12.8403 12.1049 12.8394 11.7166L12.8367 10.5618C12.8358 10.174 12.5212 9.86035 12.1336 9.86035Z" fill="#100E2C"/>
<path d="M9.39603 9.86035C9.00852 9.86035 8.69389 10.174 8.69295 10.5618L8.69019 11.7166C8.68925 12.1049 9.00331 12.4205 9.39162 12.4214H9.39336C9.78087 12.4214 10.0955 12.1077 10.0964 11.7199L10.0992 10.5652C10.1001 10.1768 9.78608 9.86124 9.39777 9.86035C9.3972 9.86035 9.39664 9.86035 9.39603 9.86035Z" fill="#100E2C"/>
</g>
<defs>
<clipPath id="clip0_2366_965">
<rect width="24" height="24" fill="white" transform="translate(0.666748 0.5)"/>
</clipPath>
</defs>
</svg>
