<svg width="32" height="32" viewBox="0 0 32 32" fill="none" xmlns="http://www.w3.org/2000/svg">
<g clip-path="url(#clip0_2390_487)">
<path d="M31.0617 17.063H29.8492H7.49046V6.5302C7.49046 5.14189 8.61989 4.01245 10.0081 4.01245C11.106 4.01245 12.0415 4.71908 12.385 5.70126C10.6701 6.01345 9.36539 7.51708 9.36539 9.32076V10.23C9.36539 10.7477 9.78514 11.1675 10.3029 11.1675H16.6238C17.1415 11.1675 17.5613 10.7477 17.5613 10.23V9.32076C17.5613 7.43845 16.1405 5.8827 14.3152 5.6672C13.9131 3.65689 12.1349 2.13745 10.0081 2.13745C7.58602 2.13745 5.61546 4.10801 5.61546 6.5302V17.063H2.14921H0.936707C0.418957 17.063 -0.000793457 17.4827 -0.000793457 18.0005C-0.000793457 18.5182 0.418957 18.938 0.936707 18.938H1.38983L2.26777 23.0751C2.58777 24.5833 3.42383 25.9483 4.62183 26.9188C4.69414 26.9773 4.76764 27.0341 4.84214 27.0895L4.06158 28.4601C3.80533 28.91 3.96233 29.4824 4.41227 29.7386C4.55871 29.8221 4.71808 29.8617 4.87533 29.8617C5.20127 29.8617 5.51802 29.6914 5.69083 29.388L6.48889 27.9866C7.24608 28.2722 8.05339 28.4237 8.87046 28.4237H23.128C23.945 28.4237 24.7523 28.2722 25.5095 27.9866L26.3076 29.388C26.4805 29.6915 26.7971 29.8617 27.1231 29.8617C27.2804 29.8617 27.4397 29.822 27.5861 29.7386C28.0361 29.4824 28.1931 28.91 27.9368 28.4601L27.1563 27.0895C27.2308 27.0341 27.3043 26.9773 27.3766 26.9188C28.5746 25.9483 29.4106 24.5833 29.7306 23.0751L30.6086 18.938H31.0617C31.5795 18.938 31.9992 18.5182 31.9992 18.0005C31.9992 17.4827 31.5795 17.063 31.0617 17.063ZM15.686 9.29239H11.2406C11.2558 8.31014 12.0596 7.5157 13.0453 7.5157H13.8813C14.8671 7.5157 15.6708 8.31014 15.686 9.29239ZM27.8965 22.6859C27.4215 24.9242 25.416 26.5488 23.1279 26.5488H8.87046C6.58233 26.5488 4.57683 24.9242 4.10183 22.6859L3.30652 18.938H28.6918L27.8965 22.6859Z" fill="#7A7474"/>
<path d="M15.2883 12.4805C15.2875 12.4805 15.2868 12.4805 15.286 12.4805C14.7683 12.4817 14.3496 12.9024 14.3508 13.4202L14.3545 14.9599C14.3557 15.4768 14.7751 15.8952 15.2919 15.8952H15.2942C15.812 15.8939 16.2306 15.4732 16.2295 14.9554L16.2258 13.4157C16.2246 12.8987 15.8051 12.4805 15.2883 12.4805Z" fill="#7A7474"/>
<path d="M11.6386 12.4803C11.122 12.4803 10.7024 12.8986 10.7012 13.4156L10.6975 14.9553C10.6963 15.4731 11.115 15.8938 11.6328 15.895H11.6351C12.1518 15.895 12.5713 15.4768 12.5725 14.9598L12.5762 13.4201C12.5774 12.9023 12.1587 12.4815 11.641 12.4803C11.6402 12.4803 11.6395 12.4803 11.6386 12.4803Z" fill="#7A7474"/>
</g>
<defs>
<clipPath id="clip0_2390_487">
<rect width="32" height="32" fill="white" transform="translate(-0.000793457)"/>
</clipPath>
</defs>
</svg>
