<svg width="32" height="28" viewBox="0 0 32 28" fill="none" xmlns="http://www.w3.org/2000/svg">
<path d="M30.437 14.0418V13.4323C30.437 12.3096 29.8558 11.3207 28.9789 10.7488V4.10084C28.9789 2.35171 27.5559 0.928711 25.8068 0.928711H6.19164C4.44252 0.928711 3.01946 2.35171 3.01946 4.10084V10.7488C2.14258 11.3206 1.56133 12.3096 1.56133 13.4323V14.0417C0.663456 14.2781 -0.000793457 15.0969 -0.000793457 16.068V23.199C-0.000793457 24.3209 0.885582 25.2395 1.99477 25.2916V26.1356C1.99477 26.6523 2.41371 27.0713 2.93046 27.0713C3.44721 27.0713 3.86614 26.6523 3.86614 26.1356V25.2941H28.1322V26.1356C28.1322 26.6523 28.5511 27.0713 29.0679 27.0713C29.5846 27.0713 30.0036 26.6523 30.0036 26.1356V25.2916C31.1128 25.2394 31.9992 24.3208 31.9992 23.199V16.068C31.9992 15.0968 31.335 14.2781 30.437 14.0418ZM4.89089 4.10084C4.89089 3.38359 5.47439 2.80009 6.19164 2.80009H25.8068C26.524 2.80009 27.1075 3.38359 27.1075 4.10084V10.23H25.8599V8.58077C25.8599 7.4264 24.9208 6.48721 23.7663 6.48721H18.7315C17.5771 6.48721 16.6379 7.4264 16.6379 8.58077V10.23H15.3605V8.58077C15.3605 7.4264 14.4213 6.48721 13.267 6.48721H8.23208C7.07764 6.48721 6.13852 7.4264 6.13852 8.58077V10.23H4.89089V4.10084ZM23.9885 8.58071V10.0078C23.9885 10.1303 23.8888 10.23 23.7663 10.23H18.7315C18.609 10.23 18.5093 10.1303 18.5093 10.0078V8.58071C18.5093 8.45821 18.609 8.35859 18.7315 8.35859H23.7663C23.8888 8.35859 23.9885 8.45821 23.9885 8.58071ZM13.4891 8.58071V10.0078C13.4891 10.1303 13.3894 10.23 13.267 10.23H8.23208C8.10958 10.23 8.00996 10.1303 8.00996 10.0078V8.58071C8.00996 8.45821 8.10964 8.35859 8.23208 8.35859H13.267C13.3894 8.35859 13.4891 8.45821 13.4891 8.58071ZM3.43277 13.4323C3.43277 12.6984 4.02983 12.1014 4.76371 12.1014H27.2347C27.9686 12.1014 28.5656 12.6985 28.5656 13.4323V13.9728H3.43277V13.4323ZM30.1278 23.199C30.1278 23.3223 30.0274 23.4227 29.904 23.4227H2.09439C1.97102 23.4227 1.87058 23.3223 1.87058 23.199V16.068C1.87058 15.9446 1.97096 15.8443 2.09439 15.8443H29.904C30.0274 15.8443 30.1278 15.9446 30.1278 16.068V23.199H30.1278Z" fill="#7A7474"/>
</svg>
