<svg width="24" height="25" viewBox="0 0 24 25" fill="none" xmlns="http://www.w3.org/2000/svg">
<path d="M22.8284 12.5313V12.0743C22.8284 11.2322 22.3924 10.4905 21.7348 10.0616V5.07563C21.7348 3.76378 20.6675 2.69653 19.3557 2.69653H4.64433C3.33248 2.69653 2.26519 3.76378 2.26519 5.07563V10.0616C1.60753 10.4905 1.17159 11.2322 1.17159 12.0742V12.5313C0.498187 12.7086 0 13.3227 0 14.051V19.3993C0 20.2407 0.664781 20.9296 1.49667 20.9687V21.6017C1.49667 21.9893 1.81088 22.3035 2.19844 22.3035C2.586 22.3035 2.9002 21.9893 2.9002 21.6017V20.9706H21.0998V21.6017C21.0998 21.9893 21.414 22.3035 21.8015 22.3035C22.1891 22.3035 22.5033 21.9893 22.5033 21.6017V20.9687C23.3352 20.9295 24 20.2406 24 19.3992V14.051C24 13.3226 23.5018 12.7086 22.8284 12.5313ZM3.66877 5.07563C3.66877 4.53769 4.10639 4.10006 4.64433 4.10006H19.3557C19.8936 4.10006 20.3312 4.53769 20.3312 5.07563V9.67252H19.3955V8.43558C19.3955 7.5698 18.6912 6.86541 17.8253 6.86541H14.0492C13.1834 6.86541 12.479 7.5698 12.479 8.43558V9.67252H11.521V8.43558C11.521 7.5698 10.8166 6.86541 9.95081 6.86541H6.17466C5.30883 6.86541 4.60448 7.5698 4.60448 8.43558V9.67252H3.66877V5.07563ZM17.9919 8.43553V9.50588C17.9919 9.59775 17.9172 9.67247 17.8253 9.67247H14.0492C13.9573 9.67247 13.8826 9.59771 13.8826 9.50588V8.43553C13.8826 8.34366 13.9574 8.26894 14.0492 8.26894H17.8253C17.9172 8.26894 17.9919 8.34366 17.9919 8.43553ZM10.1174 8.43553V9.50588C10.1174 9.59775 10.0426 9.67247 9.95081 9.67247H6.17466C6.08278 9.67247 6.00806 9.59771 6.00806 9.50588V8.43553C6.00806 8.34366 6.08283 8.26894 6.17466 8.26894H9.95081C10.0426 8.26894 10.1174 8.34366 10.1174 8.43553ZM2.57517 12.0742C2.57517 11.5238 3.02297 11.076 3.57338 11.076H20.4266C20.977 11.076 21.4248 11.5238 21.4248 12.0742V12.4796H2.57517V12.0742ZM22.5964 19.3992C22.5964 19.4918 22.5211 19.567 22.4286 19.567H1.57139C1.47886 19.567 1.40353 19.4918 1.40353 19.3992V14.051C1.40353 13.9585 1.47881 13.8832 1.57139 13.8832H22.4286C22.5211 13.8832 22.5965 13.9585 22.5965 14.051V19.3992H22.5964Z" fill="#100E2C"/>
</svg>
