<svg width="32" height="32" viewBox="0 0 32 32" fill="none" xmlns="http://www.w3.org/2000/svg">
<g clip-path="url(#clip0_2390_495)">
<path d="M12.3419 12.7623L9.00856 10.7623C8.69656 10.5743 8.28456 10.6743 8.09387 10.9903C7.90587 11.3063 8.00718 11.7156 8.32318 11.905L11.6565 13.905C11.7632 13.969 11.8818 13.9997 11.9992 13.9997C12.2245 13.9997 12.4459 13.885 12.5712 13.677C12.7605 13.361 12.6579 12.9517 12.3419 12.7623Z" fill="#7A7474" stroke="#7A7474" stroke-width="0.5"/>
<path d="M16.3419 11.429L13.0086 9.42904C12.6966 9.23972 12.2846 9.34104 12.0939 9.65704C11.9059 9.97304 12.0072 10.3823 12.3232 10.5717L15.6565 12.5717C15.7632 12.6357 15.8818 12.6664 15.9992 12.6664C16.2245 12.6664 16.4459 12.5517 16.5712 12.3437C16.7605 12.0277 16.6579 11.6183 16.3419 11.429Z" fill="#7A7474" stroke="#7A7474" stroke-width="0.5"/>
<path d="M20.3419 10.0957L17.0086 8.09566C16.6966 7.90635 16.2859 8.00766 16.0939 8.32366C15.9059 8.63966 16.0072 9.04897 16.3232 9.23835L19.6565 11.2383C19.7632 11.3023 19.8818 11.333 19.9992 11.333C20.2245 11.333 20.4459 11.2183 20.5712 11.0103C20.7605 10.6943 20.6579 10.285 20.3419 10.0957Z" fill="#7A7474" stroke="#7A7474" stroke-width="0.5"/>
<path d="M24.3419 8.76232L21.0086 6.76231C20.6966 6.57431 20.2832 6.67431 20.0939 6.99031C19.9059 7.30631 20.0072 7.71563 20.3232 7.905L23.6565 9.905C23.7632 9.969 23.8818 9.99969 23.9992 9.99969C24.2245 9.99969 24.4459 9.885 24.5712 9.677C24.7605 9.361 24.6579 8.95169 24.3419 8.76232Z" fill="#7A7474" stroke="#7A7474" stroke-width="0.5"/>
<path d="M31.9832 9.93703C31.9765 9.87303 31.9632 9.81172 31.9392 9.75303C31.9259 9.71972 31.9112 9.69034 31.8925 9.65972C31.8605 9.6064 31.8205 9.5624 31.7738 9.51972C31.7551 9.5024 31.7471 9.4784 31.7258 9.46372C31.7165 9.45703 31.7031 9.45703 31.6938 9.4504C31.6818 9.4424 31.6751 9.4304 31.6618 9.4224L22.3285 4.08903C22.1672 3.99703 21.9752 3.97434 21.7992 4.03172L0.465893 10.6983C0.43658 10.7063 0.413893 10.7277 0.385893 10.741C0.36858 10.749 0.34858 10.7463 0.33258 10.7557C0.319268 10.7637 0.31258 10.7797 0.299268 10.789C0.223268 10.8397 0.161955 10.9023 0.113955 10.9757C0.105955 10.989 0.0939551 10.997 0.0859551 11.0104C0.0352676 11.1024 0.00995508 11.2037 0.00595508 11.3104C0.00595508 11.3184 -0.000732422 11.3251 -0.000732422 11.3331V21.9998C-0.000732422 22.2385 0.127268 22.4598 0.335268 22.5785L9.66858 27.9118C9.77127 27.9705 9.88458 27.9998 9.99927 27.9998C10.0646 27.9998 10.1326 27.9905 10.1966 27.9691L31.5299 21.3024C31.8086 21.2157 31.9992 20.9584 31.9992 20.6664V9.99972C31.9992 9.97834 31.9859 9.95972 31.9832 9.93703ZM9.33252 26.1837L1.33252 21.613V12.4823L9.33252 17.053V26.1837ZM10.0779 15.9437L2.32452 11.513L21.9192 5.38903L29.6725 9.81972L10.0779 15.9437ZM30.6659 20.1757L10.6659 26.4264V17.1557L30.6659 10.9064V20.1757Z" fill="#7A7474" stroke="#7A7474" stroke-width="0.5"/>
</g>
<defs>
<clipPath id="clip0_2390_495">
<rect width="32" height="32" fill="white" transform="translate(-0.000793457)"/>
</clipPath>
</defs>
</svg>
