<svg width="26" height="26" viewBox="0 0 26 26" fill="none" xmlns="http://www.w3.org/2000/svg">
<path d="M23.6659 20.0003H21.9992V11.3336H23.2832C24.7805 11.3336 25.9992 10.115 25.9992 8.61763C25.9992 7.67363 25.5219 6.81229 24.7219 6.31496L15.9925 0.857625C14.1939 -0.265042 11.8019 -0.265042 10.0045 0.857625L1.27654 6.31496C0.47654 6.81363 -0.000793457 7.67496 -0.000793457 8.61896C-0.000793457 10.1163 1.21787 11.335 2.71521 11.335H3.99921V20.0016H2.33254C1.04587 20.0016 -0.000793457 21.0483 -0.000793457 22.335V23.6683C-0.000793457 24.955 1.04587 26.0016 2.33254 26.0016H23.6659C24.9525 26.0016 25.9992 24.955 25.9992 23.6683V22.335C25.9992 21.0483 24.9525 20.0003 23.6659 20.0003ZM19.9992 20.0003H16.6659V11.3336H19.9992V20.0003ZM11.3325 11.3336H14.6659V20.0003H11.3325V11.3336ZM1.99921 8.61763C1.99921 8.36829 2.12454 8.14296 2.33521 8.00963L11.0645 2.55363C11.6459 2.19096 12.3139 1.99896 12.9992 1.99896C13.6845 1.99896 14.3525 2.19096 14.9339 2.55363L23.6632 8.01096C23.8739 8.14296 23.9992 8.36963 23.9992 8.61763C23.9992 9.01229 23.6779 9.33363 23.2832 9.33363H2.71521C2.32054 9.33363 1.99921 9.01229 1.99921 8.61763ZM5.99921 11.3336H9.33254V20.0003H5.99921V11.3336ZM23.9992 23.667C23.9992 23.851 23.8499 24.0003 23.6659 24.0003H2.33254C2.14854 24.0003 1.99921 23.851 1.99921 23.667V22.3336C1.99921 22.1496 2.14854 22.0003 2.33254 22.0003H23.6659C23.8499 22.0003 23.9992 22.1496 23.9992 22.3336V23.667Z" fill="black"/>
</svg>
