<svg width="30" height="26" viewBox="0 0 30 26" fill="none" xmlns="http://www.w3.org/2000/svg">
<path d="M28.2978 19.7055V11.4005L28.5348 11.2625C29.0378 10.9705 29.3378 10.4495 29.3378 9.86847C29.3378 9.28747 29.0378 8.76547 28.5348 8.47347L16.3778 1.41147C15.3548 0.815469 14.0818 0.816469 13.0588 1.41147L0.900816 8.47447C0.398816 8.76647 0.0988159 9.28747 0.0988159 9.86847C0.0988159 10.4495 0.398816 10.9705 0.900816 11.2635L4.58682 13.4055V18.3845C4.58682 19.5405 5.20882 20.6155 6.20882 21.1925L11.2828 24.1175C12.3418 24.7275 13.5298 25.0335 14.7178 25.0335C15.9058 25.0335 17.0928 24.7285 18.1528 24.1175L23.2258 21.1925C24.2268 20.6165 24.8488 19.5405 24.8488 18.3845V13.4045L26.4978 12.4465V19.7055C26.0748 19.9935 25.7968 20.4785 25.7968 21.0295C25.7968 21.9135 26.5138 22.6305 27.3978 22.6305C28.2818 22.6305 28.9988 21.9135 28.9988 21.0295C28.9988 20.4795 28.7208 19.9945 28.2978 19.7055ZM23.0498 18.3835H23.0488C23.0488 18.8975 22.7738 19.3755 22.3278 19.6315L17.2548 22.5565C15.6908 23.4575 13.7458 23.4575 12.1828 22.5565L7.10882 19.6315C6.66382 19.3755 6.38782 18.8975 6.38782 18.3835V14.4505L13.0588 18.3265C13.5708 18.6235 14.1448 18.7725 14.7188 18.7725C15.2928 18.7725 15.8668 18.6245 16.3788 18.3265L23.0498 14.4505V18.3835ZM15.4738 16.7705C15.0078 17.0415 14.4288 17.0415 13.9628 16.7705L2.08382 9.86847L13.9618 2.96647C14.4278 2.69547 15.0068 2.69547 15.4728 2.96647L27.3518 9.86747L15.4738 16.7705Z" fill="black"/>
</svg>
