<svg width="32" height="32" viewBox="0 0 32 32" fill="none" xmlns="http://www.w3.org/2000/svg">
<g clip-path="url(#clip0_2390_6)">
<path d="M29.4233 0.00317383H2.56878C1.15174 0.00317383 -0.000793457 1.1557 -0.000793457 2.57275V29.4336C-0.000793457 30.8444 1.15174 31.9969 2.56878 31.9969H29.4296C30.8467 31.9969 31.9992 30.8444 31.9992 29.4273V2.57275C31.9929 1.1557 30.8404 0.00317383 29.4233 0.00317383ZM15.108 30.2209H2.56878C2.13422 30.2209 1.78153 29.8682 1.78153 29.4336V2.57275C1.78153 2.13819 2.13422 1.7855 2.56878 1.7855H15.108V30.2209ZM29.4296 30.2146H16.8841V1.7792H29.4233C29.8579 1.7792 30.2106 2.13189 30.2106 2.56645V29.4273H30.2169C30.2169 29.8619 29.8642 30.2146 29.4296 30.2146Z" fill="#7A7474"/>
<path d="M11.8835 16.6865C11.5371 16.3401 10.9766 16.3401 10.6239 16.6865L9.33281 17.9776V11.8748C9.33281 11.3836 8.93603 10.9868 8.44479 10.9868C7.95355 10.9868 7.55678 11.3836 7.55678 11.8748V17.9776L6.26569 16.6928C5.9193 16.3464 5.35879 16.3464 5.0061 16.6928C4.65971 17.0392 4.65971 17.5997 5.0061 17.9524L7.81499 20.755C7.99134 20.9313 8.21807 21.0132 8.44479 21.0132C8.67152 21.0132 8.89825 20.925 9.07459 20.755L11.8835 17.9461C12.2299 17.5997 12.2299 17.0392 11.8835 16.6865Z" fill="#7A7474"/>
<path d="M26.986 14.0539L24.1771 11.245C24.0008 11.0687 23.7741 10.9868 23.5473 10.9868C23.3206 10.9868 23.0939 11.075 22.9175 11.245L20.1086 14.0539C19.7622 14.4003 19.7622 14.9608 20.1086 15.3135C20.455 15.6599 21.0155 15.6599 21.3682 15.3135L22.6593 14.0224V20.1252C22.6593 20.6164 23.0561 21.0132 23.5473 21.0132C24.0386 21.0132 24.4353 20.6164 24.4353 20.1252V14.0224L25.7264 15.3135C26.0728 15.6599 26.6333 15.6599 26.986 15.3135C27.3324 14.9671 27.3324 14.4066 26.986 14.0539Z" fill="#7A7474"/>
</g>
<defs>
<clipPath id="clip0_2390_6">
<rect width="32" height="32" fill="white" transform="translate(-0.000793457)"/>
</clipPath>
</defs>
</svg>
