<svg width="32" height="32" viewBox="0 0 32 32" fill="none" xmlns="http://www.w3.org/2000/svg">
<path fill-rule="evenodd" clip-rule="evenodd" d="M6.58752 32.0001C7.10729 32.0001 7.52866 31.5787 7.52866 31.0589V28.2354H12.7051C13.2249 28.2354 13.6463 27.814 13.6463 27.2943V24.4708H18.8227C19.3425 24.4708 19.7638 24.0494 19.7638 23.5296V20.7061H24.9403C25.46 20.7061 25.8814 20.2848 25.8814 19.765V16.9415H31.0579C31.5777 16.9415 31.999 16.5201 31.999 16.0004C31.999 15.4806 31.5776 15.0592 31.0579 15.0592H24.9404C24.4206 15.0592 23.9992 15.4806 23.9992 16.0004V18.8238H18.8228C18.303 18.8238 17.8817 19.2452 17.8817 19.765V22.5885H12.7052C12.1854 22.5885 11.7641 23.0099 11.7641 23.5296V26.3531H6.58762C6.06785 26.3531 5.64647 26.7745 5.64647 27.2943V30.1178H0.940476C0.420706 30.1178 -0.000671387 30.5391 -0.000671387 31.0589C-0.000671387 31.5787 0.420706 32.0001 0.940476 32.0001H6.58752Z" fill="#7A7474"/>
<path fill-rule="evenodd" clip-rule="evenodd" d="M14.5875 11.6912V22.5883C14.5875 23.1081 15.0088 23.5294 15.5286 23.5294C16.0484 23.5294 16.4698 23.1081 16.4698 22.5883V10.5558L27.2932 4.02737V15.0589C27.2932 15.5787 27.7146 16.0001 28.2344 16.0001C28.7542 16.0001 29.1755 15.5787 29.1755 15.0589V2.89201L31.0734 1.74726C31.5185 1.47879 31.6617 0.900304 31.3932 0.455207C31.1247 0.0101104 30.5462 -0.133095 30.1012 0.135422L0.454414 18.0177C0.00931693 18.2862 -0.133889 18.8646 0.134628 19.3097C0.403093 19.7548 0.981582 19.898 1.42668 19.6295L2.35235 19.0712V30.1176C2.35235 30.6374 2.77372 31.0588 3.29349 31.0588C3.81326 31.0588 4.23464 30.6374 4.23464 30.1176V17.9358L14.5875 11.6912Z" fill="#7A7474"/>
</svg>
