<svg width="22" height="21" viewBox="0 0 22 21" fill="none" xmlns="http://www.w3.org/2000/svg">
<path d="M21.1055 5.34005L11.3555 0.0900479C11.1343 -0.0292021 10.8665 -0.0292021 10.6453 0.0900479L0.89525 5.34005C0.6515 5.47055 0.5 5.72405 0.5 6.00005V20.25C0.5 20.664 0.83525 21 1.25 21H20.75C21.1647 21 21.5 20.664 21.5 20.25V6.00005C21.5 5.72405 21.3485 5.47055 21.1055 5.34005ZM5.75 13.5H16.25V15.75H5.75V13.5ZM16.25 12H5.75V9.75005H16.25V12ZM5.75 19.5V17.25H16.25V19.5H5.75ZM20 19.5H17.75V9.00005C17.75 8.58605 17.4147 8.25005 17 8.25005H5C4.58525 8.25005 4.25 8.58605 4.25 9.00005V19.5H2V6.4478L11 1.60205L20 6.4478V19.5Z" fill="#100E2C"/>
</svg>
