<svg width="28" height="26" viewBox="0 0 28 26" fill="none" xmlns="http://www.w3.org/2000/svg">
<path d="M24.8439 4.58562H20.8625V2.0545C20.8625 0.921636 19.9131 0 18.7461 0H9.25233C8.08535 0 7.13593 0.921636 7.13593 2.0545V4.58562H3.15451C1.41468 4.58562 -0.000793457 5.95966 -0.000793457 7.64855V22.9371C-0.000793457 24.626 1.41468 26 3.15451 26H24.8439C26.5837 26 27.9992 24.626 27.9992 22.9371V7.64855C27.9992 5.95966 26.5837 4.58562 24.8439 4.58562ZM8.88593 2.0545C8.88593 1.86169 9.05371 1.69877 9.25233 1.69877H18.7461C18.9447 1.69877 19.1125 1.86164 19.1125 2.0545V4.58562H8.88593V2.0545ZM26.2492 22.9371C26.2492 23.6892 25.6188 24.3012 24.8439 24.3012H3.15451C2.37959 24.3012 1.74921 23.6892 1.74921 22.9371V7.64855C1.74921 6.89637 2.37959 6.28439 3.15451 6.28439H24.8439C25.6188 6.28439 26.2492 6.89632 26.2492 7.64855V22.9371ZM19.468 12.4328H16.9455V9.98415C16.9455 9.51508 16.5537 9.13477 16.0705 9.13477H11.928C11.4448 9.13477 11.053 9.51508 11.053 9.98415V12.4328H8.53046C8.04724 12.4328 7.65546 12.8131 7.65546 13.2822V17.3034C7.65546 17.7725 8.04724 18.1528 8.53046 18.1528H11.0529V20.6014C11.0529 21.0705 11.4447 21.4508 11.9279 21.4508H16.0704C16.5537 21.4508 16.9454 21.0705 16.9454 20.6014V18.1528H19.468C19.9512 18.1528 20.343 17.7725 20.343 17.3034V13.2822C20.343 12.8131 19.9512 12.4328 19.468 12.4328ZM18.593 16.454H16.0705C15.5873 16.454 15.1955 16.8343 15.1955 17.3034V19.752H12.803V17.3034C12.803 16.8343 12.4112 16.454 11.928 16.454H9.40546V14.1315H11.9279C12.4111 14.1315 12.8029 13.7512 12.8029 13.2822V10.8335H15.1954V13.2822C15.1954 13.7512 15.5872 14.1315 16.0704 14.1315H18.593V16.454Z" fill="black"/>
</svg>
