<svg width="25" height="24" viewBox="0 0 25 24" fill="none" xmlns="http://www.w3.org/2000/svg">
<g clip-path="url(#clip0_146_14585)">
<path d="M24.2255 8.57153L18.6943 3.04028C18.3281 2.67407 17.7344 2.67407 17.3684 3.04028L15.2656 5.14288L13.163 3.04028C12.7968 2.67407 12.2032 2.67407 11.8372 3.04028L9.73438 5.14288L7.63159 3.04028C7.26556 2.67407 6.67194 2.67407 6.30591 3.04028L0.774658 8.57153C0.598694 8.74731 0.5 8.98572 0.5 9.23438V20.2969C0.5 20.8147 0.919678 21.2344 1.4375 21.2344H23.5625C24.0803 21.2344 24.5 20.8147 24.5 20.2969V9.23438C24.5 8.98572 24.4013 8.74731 24.2255 8.57153ZM12.5 5.02899C12.9938 5.52283 16.5247 9.05365 17.0938 9.62274V19.3594H13.4375V9.23438C13.4375 8.98572 13.3388 8.74731 13.163 8.57153L11.0602 6.46875L12.5 5.02899ZM2.375 9.62274L6.96875 5.02899L11.5625 9.62274V19.3594H9.75012V14.7656C9.75012 14.2478 9.33044 13.8281 8.81262 13.8281H5.12506C4.60724 13.8281 4.18756 14.2478 4.18756 14.7656V19.3594H2.375V9.62274ZM7.87512 19.3594H6.06256V15.7031H7.87512V19.3594ZM22.625 19.3594H18.9688V9.23438C18.9688 8.98572 18.8701 8.74731 18.6943 8.57153L16.5915 6.46875L18.0312 5.02899L22.625 9.62274V19.3594Z" fill="#7A7474"/>
</g>
<defs>
<clipPath id="clip0_146_14585">
<rect width="24" height="24" fill="white" transform="translate(0.5)"/>
</clipPath>
</defs>
</svg>
