<svg width="65" height="58" viewBox="0 0 65 58" fill="none" xmlns="http://www.w3.org/2000/svg">
<path d="M63.9595 16.3582L33.2395 0.984969C32.8789 0.804489 32.4546 0.804489 32.0939 0.984969L1.37395 16.3582C0.940508 16.5752 0.666748 17.0182 0.666748 17.5029V22.6445C0.666748 23.0882 0.896668 23.5003 1.27395 23.7334C1.65171 23.9667 2.12307 23.9875 2.51955 23.7891L4.45347 22.8213V54.5925H3.12003C2.41315 54.5925 1.84003 55.1656 1.84003 55.8725C1.84003 56.5794 2.41315 57.1525 3.12003 57.1525H62.2135C62.9203 57.1525 63.4935 56.5794 63.4935 55.8725C63.4935 55.1656 62.9203 54.5925 62.2135 54.5925H60.88V22.8213L62.8139 23.7891C62.9947 23.8795 63.1909 23.9245 63.3867 23.9245C63.6207 23.9245 63.8539 23.8605 64.0595 23.7334C64.4368 23.5002 64.6667 23.0882 64.6667 22.6445V17.5029C64.6667 17.0182 64.393 16.5752 63.9595 16.3582ZM47.9735 44.2725H17.36V41.7925H47.9735V44.2725ZM17.36 46.8325H47.9735V49.5525H17.36V46.8325ZM47.9735 39.2325H17.36V36.6192H47.9735V39.2325ZM17.36 52.1125H47.9735V54.5925H17.36V52.1125ZM58.32 54.5925H50.5335V35.3391C50.5335 34.6322 49.9603 34.059 49.2535 34.059H16.08C15.3731 34.059 14.8 34.6322 14.8 35.3391V54.5923H7.01347V21.5402L32.6667 8.70241L58.32 21.5402V54.5925ZM62.1067 20.5725L33.2395 6.12641C32.8789 5.94593 32.4546 5.94593 32.0939 6.12641L3.22675 20.5725V18.2936L32.6667 3.56081L62.1067 18.2936V20.5725Z" fill="white"/>
<path d="M22.481 21.3633H16.0796C15.3727 21.3633 14.7996 21.9364 14.7996 22.6433V29.0447C14.7996 29.7516 15.3727 30.3247 16.0796 30.3247H22.481C23.1879 30.3247 23.761 29.7516 23.761 29.0447V22.6433C23.761 21.9362 23.1879 21.3633 22.481 21.3633ZM21.201 27.7646H17.3596V23.9231H21.201V27.7646Z" fill="white"/>
<path d="M42.853 30.3247H49.2544C49.9613 30.3247 50.5344 29.7516 50.5344 29.0447V22.6433C50.5344 21.9364 49.9613 21.3633 49.2544 21.3633H42.853C42.1461 21.3633 41.573 21.9364 41.573 22.6433V29.0447C41.573 29.7518 42.1461 30.3247 42.853 30.3247ZM44.133 23.9234H47.9744V27.7649H44.133V23.9234Z" fill="white"/>
<path d="M26.2664 22.6433V29.0447C26.2664 29.7516 26.8395 30.3247 27.5464 30.3247H37.7864C38.4932 30.3247 39.0664 29.7516 39.0664 29.0447V22.6433C39.0664 21.9364 38.4932 21.3633 37.7864 21.3633H27.5464C26.8395 21.3633 26.2664 21.9362 26.2664 22.6433ZM28.8264 23.9233H36.5064V27.7647H28.8264V23.9233Z" fill="white"/>
</svg>
