<svg width="65" height="60" viewBox="0 0 65 60" fill="none" xmlns="http://www.w3.org/2000/svg">
<path d="M62.2886 31.0303C62.5141 31.1996 62.784 31.286 63.0557 31.286C63.2504 31.286 63.4461 31.2416 63.6269 31.1512C64.0598 30.9349 64.3334 30.4923 64.3334 30.0082V24.8756C64.3334 24.4734 64.1441 24.0948 63.8226 23.8535L57.8888 19.4005C57.8894 19.3842 57.8912 19.3681 57.8912 19.3516V8.37051C57.8912 7.66484 57.319 7.09271 56.6134 7.09271H47.7619C47.0562 7.09271 46.4841 7.66484 46.4841 8.37051V10.8421L33.1553 0.839622C32.7007 0.498609 32.0759 0.498609 31.6213 0.839622L0.954066 23.8533C0.63238 24.0947 0.443265 24.4732 0.443265 24.8754V30.008C0.443265 30.4921 0.716874 30.9346 1.14973 31.151C1.58259 31.3674 2.10073 31.3208 2.48807 31.0301L2.99887 30.6468V56.8604H1.61118C0.90551 56.8604 0.333374 57.4325 0.333374 58.1382C0.333374 58.8439 0.90551 59.416 1.61118 59.416H63.0522C63.7579 59.416 64.33 58.8439 64.33 58.1382C64.33 57.4325 63.7579 56.8604 63.0522 56.8604H61.7778V30.6468L62.2886 31.0303ZM49.0397 9.64831H55.3356V17.4846L49.0397 12.7599V9.64831ZM2.99887 25.5141L32.3883 3.45928L61.7778 25.5141V27.4518L33.1552 5.97239C32.9279 5.80181 32.6581 5.71651 32.3882 5.71651C32.1182 5.71651 31.8484 5.80181 31.6212 5.97239L2.99887 27.4518V25.5141ZM37.396 56.8605H27.2674C27.2715 56.8189 27.2738 56.7767 27.2738 56.734V35.2577H37.3896V56.734C37.3896 56.7767 37.3919 56.8189 37.396 56.8605ZM59.2222 29.0033V56.8604H39.9389C39.943 56.8187 39.9452 56.7765 39.9452 56.7339V33.9799C39.9452 33.2742 39.3731 32.7021 38.6674 32.7021H25.996C25.2903 32.7021 24.7182 33.2742 24.7182 33.9799V56.734C24.7182 56.7767 24.7204 56.8189 24.7245 56.8605H5.55447V29.0033C5.55447 28.916 5.54553 28.8307 5.52892 28.7481L32.3883 8.59189L59.2477 28.7481C59.2309 28.8307 59.2222 28.916 59.2222 29.0033Z" fill="white"/>
<path d="M29.8557 45.3436C29.5202 45.3436 29.1912 45.481 28.9534 45.7174C28.7154 45.9554 28.5795 46.286 28.5795 46.6214C28.5795 46.9585 28.7154 47.2875 28.9534 47.5255C29.1912 47.7635 29.5204 47.8992 29.8557 47.8992C30.1927 47.8992 30.5217 47.7635 30.7597 47.5255C30.9977 47.2875 31.1351 46.9585 31.1351 46.6214C31.1351 46.286 30.9979 45.957 30.7597 45.7174C30.5217 45.4812 30.1929 45.3436 29.8557 45.3436Z" fill="white"/>
<path d="M25.9252 22.386C25.9252 25.9181 28.7986 28.7916 32.3308 28.7916C35.863 28.7916 38.7364 25.918 38.7364 22.386C38.7364 18.854 35.8628 15.9803 32.3308 15.9803C28.7988 15.9803 25.9252 18.8538 25.9252 22.386ZM32.3308 26.236C30.6558 26.236 29.228 25.1604 28.6998 23.6638H35.962C35.4338 25.1604 34.0058 26.236 32.3308 26.236ZM35.962 21.1082H28.6998C29.228 19.6117 30.6558 18.536 32.3308 18.536C34.0058 18.536 35.4338 19.6117 35.962 21.1082Z" fill="white"/>
<path d="M20.9112 47.9911V33.9808C20.9112 33.2751 20.3391 32.703 19.6334 32.703H10.6688C9.96314 32.703 9.39101 33.2751 9.39101 33.9808V47.9919C8.70243 48.0116 8.14978 48.5744 8.14978 49.2678C8.14978 49.9735 8.72192 50.5456 9.42758 50.5456H10.6688H19.6334H20.8879C21.5935 50.5456 22.1657 49.9735 22.1657 49.2678C22.1658 48.57 21.606 48.0037 20.9112 47.9911ZM18.3556 35.2586V37.8142H11.9466V35.2586H18.3556ZM11.9466 47.99V40.3698H18.3556V47.99H11.9466Z" fill="white"/>
<path d="M43.8944 50.5456H45.1423H54.1069H55.3548C56.0605 50.5456 56.6326 49.9735 56.6326 49.2678C56.6326 48.5722 56.0765 48.0076 55.3847 47.9914V33.9808C55.3847 33.2751 54.8126 32.703 54.1069 32.703H45.1423C44.4366 32.703 43.8645 33.2751 43.8645 33.9808V47.9914C43.1727 48.0076 42.6166 48.5722 42.6166 49.2678C42.6166 49.9735 43.1889 50.5456 43.8944 50.5456ZM46.4201 47.99V40.3698H52.8291V47.99H46.4201ZM52.8291 35.2586V37.8142H46.4201V35.2586H52.8291Z" fill="white"/>
</svg>
