<svg width="20" height="20" viewBox="0 0 20 20" fill="none" xmlns="http://www.w3.org/2000/svg">
<rect width="20" height="20" rx="10" fill="#100E2C"/>
<g clip-path="url(#clip0_2390_841)">
<path d="M10 5.08138C11.603 5.08138 11.7912 5.08853 12.4248 5.11711C13.0107 5.14331 13.3275 5.24097 13.5395 5.32433C13.8206 5.4339 14.0206 5.56252 14.2303 5.77213C14.4399 5.98174 14.5709 6.18182 14.6781 6.46288C14.759 6.67487 14.8591 6.99166 14.8853 7.57761C14.9139 8.21119 14.921 8.39936 14.921 10.0024C14.921 11.6054 14.9139 11.7936 14.8853 12.4272C14.8591 13.0131 14.7614 13.3299 14.6781 13.5419C14.5685 13.8229 14.4399 14.023 14.2303 14.2326C14.0206 14.4422 13.8206 14.5732 13.5395 14.6804C13.3275 14.7614 13.0107 14.8615 12.4248 14.8877C11.7912 14.9162 11.603 14.9234 10 14.9234C8.39699 14.9234 8.20882 14.9162 7.57523 14.8877C6.98928 14.8615 6.67249 14.7638 6.4605 14.6804C6.17944 14.5709 5.97936 14.4422 5.76975 14.2326C5.56014 14.023 5.42914 13.8229 5.32195 13.5419C5.24097 13.3299 5.14093 13.0131 5.11473 12.4272C5.08615 11.7936 5.079 11.6054 5.079 10.0024C5.079 8.39936 5.08615 8.21119 5.11473 7.57761C5.14093 6.99166 5.23859 6.67487 5.32195 6.46288C5.43152 6.18182 5.56014 5.98174 5.76975 5.77213C5.97936 5.56252 6.17944 5.43152 6.4605 5.32433C6.67249 5.24335 6.98928 5.14331 7.57523 5.11711C8.20882 5.08615 8.39937 5.08138 10 5.08138ZM10 4C8.37079 4 8.16594 4.00715 7.52521 4.03573C6.88686 4.06431 6.45097 4.16673 6.06987 4.31441C5.67448 4.46685 5.34101 4.67408 5.00754 5.00754C4.67408 5.34101 4.46923 5.67686 4.31441 6.06987C4.16673 6.45097 4.06431 6.88686 4.03573 7.52759C4.00715 8.16594 4 8.37078 4 10C4 11.6292 4.00715 11.8341 4.03573 12.4748C4.06431 13.1131 4.16673 13.549 4.31441 13.9325C4.46685 14.3279 4.67408 14.6614 5.00754 14.9948C5.34101 15.3283 5.67686 15.5331 6.06987 15.688C6.45097 15.8356 6.88686 15.9381 7.52759 15.9667C8.16832 15.9952 8.37079 16.0024 10.0024 16.0024C11.634 16.0024 11.8364 15.9952 12.4772 15.9667C13.1155 15.9381 13.5514 15.8356 13.9349 15.688C14.3303 15.5355 14.6638 15.3283 14.9972 14.9948C15.3307 14.6614 15.5355 14.3255 15.6904 13.9325C15.838 13.5514 15.9405 13.1155 15.969 12.4748C15.9976 11.8341 16.0048 11.6316 16.0048 10C16.0048 8.3684 15.9976 8.16594 15.969 7.52521C15.9405 6.88686 15.838 6.45097 15.6904 6.06749C15.5379 5.67209 15.3307 5.33863 14.9972 5.00516C14.6638 4.6717 14.3279 4.46685 13.9349 4.31203C13.5538 4.16435 13.1179 4.06193 12.4772 4.03335C11.8341 4.00715 11.6292 4 10 4Z" fill="white"/>
<path d="M10 5.08138C11.603 5.08138 11.7912 5.08853 12.4248 5.11711C13.0107 5.14331 13.3275 5.24097 13.5395 5.32433C13.8206 5.4339 14.0206 5.56252 14.2303 5.77213C14.4399 5.98174 14.5709 6.18182 14.6781 6.46288C14.759 6.67487 14.8591 6.99166 14.8853 7.57761C14.9139 8.21119 14.921 8.39936 14.921 10.0024C14.921 11.6054 14.9139 11.7936 14.8853 12.4272C14.8591 13.0131 14.7614 13.3299 14.6781 13.5419C14.5685 13.8229 14.4399 14.023 14.2303 14.2326C14.0206 14.4422 13.8206 14.5732 13.5395 14.6804C13.3275 14.7614 13.0107 14.8615 12.4248 14.8877C11.7912 14.9162 11.603 14.9234 10 14.9234C8.39699 14.9234 8.20882 14.9162 7.57523 14.8877C6.98928 14.8615 6.67249 14.7638 6.4605 14.6804C6.17944 14.5709 5.97936 14.4422 5.76975 14.2326C5.56014 14.023 5.42914 13.8229 5.32195 13.5419C5.24097 13.3299 5.14093 13.0131 5.11473 12.4272C5.08615 11.7936 5.079 11.6054 5.079 10.0024C5.079 8.39936 5.08615 8.21119 5.11473 7.57761C5.14093 6.99166 5.23859 6.67487 5.32195 6.46288C5.43152 6.18182 5.56014 5.98174 5.76975 5.77213C5.97936 5.56252 6.17944 5.43152 6.4605 5.32433C6.67249 5.24335 6.98928 5.14331 7.57523 5.11711C8.20882 5.08615 8.39937 5.08138 10 5.08138Z" fill="white"/>
<path d="M10 6.9202C8.29935 6.9202 6.91785 8.29932 6.91785 10.0024C6.91785 11.7054 8.29697 13.0846 10 13.0846C11.7031 13.0846 13.0822 11.7054 13.0822 10.0024C13.0822 8.29932 11.7031 6.9202 10 6.9202ZM10 12.0008C8.89482 12.0008 7.99923 11.1052 7.99923 10C7.99923 8.8948 8.89482 7.9992 10 7.9992C11.1052 7.9992 12.0008 8.8948 12.0008 10C12.0008 11.1052 11.1052 12.0008 10 12.0008Z" fill="#100E2C"/>
<path d="M13.2037 7.51568C13.601 7.51568 13.923 7.19362 13.923 6.79634C13.923 6.39907 13.601 6.07701 13.2037 6.07701C12.8064 6.07701 12.4844 6.39907 12.4844 6.79634C12.4844 7.19362 12.8064 7.51568 13.2037 7.51568Z" fill="#100E2C"/>
</g>
<defs>
<clipPath id="clip0_2390_841">
<rect width="12" height="12" fill="white" transform="translate(4 4)"/>
</clipPath>
</defs>
</svg>
