<svg width="20" height="20" viewBox="0 0 20 20" fill="none" xmlns="http://www.w3.org/2000/svg">
<rect width="20" height="20" rx="10" fill="#100E2C"/>
<path d="M15.3876 7.29338C15.2582 6.80932 14.877 6.42815 14.3929 6.29878C13.5157 6.06367 9.99768 6.06367 9.99768 6.06367C9.99768 6.06367 6.47969 6.06367 5.60238 6.29878C5.11831 6.42815 4.73709 6.80932 4.60772 7.29338C4.37268 8.17068 4.37268 10.0012 4.37268 10.0012C4.37268 10.0012 4.37268 11.8316 4.60772 12.709C4.73709 13.193 5.11831 13.5742 5.60238 13.7036C6.47969 13.9387 9.99768 13.9387 9.99768 13.9387C9.99768 13.9387 13.5157 13.9387 14.3929 13.7036C14.877 13.5742 15.2582 13.193 15.3876 12.709C15.6227 11.8316 15.6227 10.0012 15.6227 10.0012C15.6227 10.0012 15.6227 8.17068 15.3876 7.29338Z" fill="white"/>
<path d="M8.31018 12.2512V7.75117L12.2477 10.0013L8.31018 12.2512Z" fill="#100E2C"/>
</svg>
