<svg width="20" height="20" viewBox="0 0 20 20" fill="none" xmlns="http://www.w3.org/2000/svg">
<rect width="20" height="20" rx="10" fill="white"/>
<rect x="3.33325" y="3.33325" width="13.3333" height="13.3333" rx="6.66667" fill="white"/>
<path d="M10.0005 3.33325C8.18997 3.33325 7.96274 3.34117 7.25163 3.37353C6.5419 3.40603 6.05745 3.51839 5.63355 3.68326C5.19508 3.85354 4.82313 4.08132 4.45257 4.45201C4.08173 4.82257 3.85395 5.19452 3.68312 5.63286C3.51784 6.05689 3.40534 6.54148 3.37339 7.25093C3.34159 7.96205 3.33325 8.18941 3.33325 9.99999C3.33325 11.8106 3.34131 12.0371 3.37353 12.7482C3.40617 13.4579 3.51853 13.9424 3.68326 14.3663C3.85367 14.8048 4.08145 15.1767 4.45215 15.5473C4.82257 15.9181 5.19452 16.1464 5.63272 16.3167C6.05689 16.4816 6.54148 16.5939 7.25107 16.6264C7.96219 16.6588 8.18927 16.6667 9.99971 16.6667C11.8104 16.6667 12.037 16.6588 12.7481 16.6264C13.4578 16.5939 13.9428 16.4816 14.367 16.3167C14.8053 16.1464 15.1767 15.9181 15.5471 15.5473C15.918 15.1767 16.1457 14.8048 16.3166 14.3664C16.4805 13.9424 16.593 13.4578 16.6263 12.7483C16.6583 12.0372 16.6666 11.8106 16.6666 9.99999C16.6666 8.18941 16.6583 7.96219 16.6263 7.25107C16.593 6.54134 16.4805 6.05689 16.3166 5.633C16.1457 5.19452 15.918 4.82257 15.5471 4.45201C15.1763 4.08118 14.8055 3.8534 14.3666 3.68326C13.9416 3.51839 13.4568 3.40603 12.7471 3.37353C12.036 3.34117 11.8096 3.33325 9.99846 3.33325H10.0005Z" fill="#100E2C"/>
<path fill-rule="evenodd" clip-rule="evenodd" d="M9.40365 4.53609C9.51978 4.53591 9.6447 4.53596 9.77951 4.53603L10.0017 4.53609C11.7817 4.53609 11.9927 4.54248 12.6956 4.57442C13.3456 4.60415 13.6984 4.71276 13.9334 4.80401C14.2445 4.92484 14.4663 5.06929 14.6995 5.30263C14.9329 5.53596 15.0773 5.75819 15.1984 6.0693C15.2897 6.30403 15.3984 6.65681 15.428 7.30681C15.46 8.0096 15.4669 8.22071 15.4669 9.9999C15.4669 11.7791 15.46 11.9902 15.428 12.693C15.3983 13.343 15.2897 13.6958 15.1984 13.9305C15.0776 14.2416 14.9329 14.4631 14.6995 14.6963C14.4662 14.9297 14.2447 15.0741 13.9334 15.195C13.6987 15.2866 13.3456 15.395 12.6956 15.4247C11.9928 15.4566 11.7817 15.4636 10.0017 15.4636C8.22155 15.4636 8.01058 15.4566 7.30779 15.4247C6.65779 15.3947 6.30501 15.2861 6.06987 15.1948C5.75875 15.074 5.53653 14.9295 5.30319 14.6962C5.06985 14.4629 4.92541 14.2412 4.8043 13.9299C4.71305 13.6952 4.60429 13.3424 4.57471 12.6924C4.54277 11.9896 4.53638 11.7785 4.53638 9.99823C4.53638 8.21793 4.54277 8.00793 4.57471 7.30515C4.60443 6.65514 4.71305 6.30236 4.8043 6.06736C4.92513 5.75624 5.06985 5.53402 5.30319 5.30068C5.53653 5.06735 5.75875 4.9229 6.06987 4.80179C6.30487 4.71012 6.65779 4.60179 7.30779 4.57192C7.9228 4.54415 8.16114 4.53581 9.40365 4.53442V4.53609ZM13.559 5.64408C13.1174 5.64408 12.759 6.002 12.759 6.44381C12.759 6.88548 13.1174 7.24382 13.559 7.24382C14.0007 7.24382 14.359 6.88548 14.359 6.44381C14.359 6.00214 14.0007 5.6438 13.559 5.6438V5.64408ZM6.57935 10.001C6.57935 8.11037 8.1122 6.57747 10.0029 6.57739C11.8936 6.57739 13.4261 8.11032 13.4261 10.001C13.4261 11.8918 11.8937 13.424 10.003 13.424C8.11228 13.424 6.57935 11.8918 6.57935 10.001Z" fill="white"/>
<path d="M10.0008 7.77856C11.228 7.77856 12.2231 8.77344 12.2231 10.0008C12.2231 11.228 11.228 12.2231 10.0008 12.2231C8.77344 12.2231 7.77856 11.228 7.77856 10.0008C7.77856 8.77344 8.77344 7.77856 10.0008 7.77856Z" fill="white"/>
</svg>
