<svg width="26" height="26" viewBox="0 0 26 26" fill="none" xmlns="http://www.w3.org/2000/svg">
<path fill-rule="evenodd" clip-rule="evenodd" d="M12.9992 0C5.82454 0 -0.000793457 5.82533 -0.000793457 13C-0.000793457 20.1747 5.82454 26 12.9992 26C20.1739 26 25.9992 20.1747 25.9992 13C25.9992 5.82533 20.1739 0 12.9992 0ZM12.9992 2C19.0699 2 23.9992 6.92933 23.9992 13C23.9992 19.0707 19.0699 24 12.9992 24C6.92854 24 1.99921 19.0707 1.99921 13C1.99921 6.92933 6.92854 2 12.9992 2Z" fill="#7A7474"/>
<path fill-rule="evenodd" clip-rule="evenodd" d="M10.6659 15.3333H14.3325C15.4819 15.3333 16.5845 14.8773 17.3965 14.064C18.2099 13.252 18.6659 12.1493 18.6659 11C18.6659 9.85063 18.2099 8.74796 17.3965 7.93596C16.5845 7.12263 15.4819 6.66663 14.3325 6.66663C12.1365 6.66663 9.66588 6.66663 9.66588 6.66663C9.11388 6.66663 8.66588 7.11463 8.66588 7.66663V18.3333C8.66588 18.8853 9.11388 19.3333 9.66588 19.3333C10.2179 19.3333 10.6659 18.8853 10.6659 18.3333V15.3333ZM10.6659 13.3333H14.3325C14.9512 13.3333 15.5445 13.088 15.9819 12.6493C16.4205 12.212 16.6659 11.6186 16.6659 11C16.6659 10.3813 16.4205 9.78796 15.9819 9.35063C15.5445 8.91196 14.9512 8.66663 14.3325 8.66663H10.6659V13.3333Z" fill="#7A7474"/>
</svg>
