<svg width="30" height="30" viewBox="0 0 30 30" fill="none" xmlns="http://www.w3.org/2000/svg">
<path d="M24.2792 0H5.71921C4.20298 0.00264382 2.74961 0.606134 1.67748 1.67827C0.60534 2.7504 0.00185036 4.20377 -0.000793457 5.72V24.28C0.00185036 25.7962 0.60534 27.2496 1.67748 28.3217C2.74961 29.3939 4.20298 29.9974 5.71921 30H24.2792C25.7954 29.9974 27.2488 29.3939 28.3209 28.3217C29.3931 27.2496 29.9966 25.7962 29.9992 24.28V5.72C29.9966 4.20377 29.3931 2.7504 28.3209 1.67827C27.2488 0.606134 25.7954 0.00264382 24.2792 0ZM27.9992 24.28C27.9966 25.2658 27.6038 26.2105 26.9067 26.9075C26.2097 27.6046 25.265 27.9974 24.2792 28H5.71921C4.73341 27.9974 3.78875 27.6046 3.09168 26.9075C2.39462 26.2105 2.00185 25.2658 1.99921 24.28V5.72C2.00185 4.73421 2.39462 3.78954 3.09168 3.09248C3.78875 2.39541 4.73341 2.00264 5.71921 2H24.2792C25.265 2.00264 26.2097 2.39541 26.9067 3.09248C27.6038 3.78954 27.9966 4.73421 27.9992 5.72V24.28Z" fill="#7A7474"/>
<path d="M23.9992 16.84C23.734 16.84 23.4796 16.9454 23.2921 17.1329C23.1046 17.3204 22.9992 17.5748 22.9992 17.84V21.59L8.40921 7H12.1592C12.4244 7 12.6788 6.89464 12.8663 6.70711C13.0538 6.51957 13.1592 6.26522 13.1592 6C13.1592 5.73478 13.0538 5.48043 12.8663 5.29289C12.6788 5.10536 12.4244 5 12.1592 5H5.68921C5.50621 5 5.3307 5.0727 5.2013 5.2021C5.0719 5.3315 4.99921 5.507 4.99921 5.69V12.16C4.99921 12.4252 5.10456 12.6796 5.2921 12.8671C5.47964 13.0546 5.73399 13.16 5.99921 13.16C6.26442 13.16 6.51878 13.0546 6.70631 12.8671C6.89385 12.6796 6.99921 12.4252 6.99921 12.16V8.41L21.5892 23H17.8392C17.574 23 17.3196 23.1054 17.1321 23.2929C16.9446 23.4804 16.8392 23.7348 16.8392 24C16.8392 24.2652 16.9446 24.5196 17.1321 24.7071C17.3196 24.8946 17.574 25 17.8392 25H24.3092C24.4922 25 24.6677 24.9273 24.7971 24.7979C24.9265 24.6685 24.9992 24.493 24.9992 24.31V17.84C24.9992 17.5748 24.8939 17.3204 24.7063 17.1329C24.5188 16.9454 24.2644 16.84 23.9992 16.84Z" fill="#7A7474"/>
</svg>
