<svg width="32" height="26" viewBox="0 0 32 26" fill="none" xmlns="http://www.w3.org/2000/svg">
<path d="M28.0685 0.932739H3.92987C1.91067 0.935939 0.275465 2.57221 0.274399 4.59141V18.1829C0.275465 20.2021 1.91067 21.8383 3.92987 21.8405H12.7907L9.5992 23.5333C8.65307 23.9727 9.3112 25.4202 10.2669 24.9871C10.3213 24.9455 15.9331 21.9909 15.9992 21.9471L21.6451 24.9477C21.7603 25.0095 21.8883 25.0415 22.0195 25.0415C22.8355 25.0746 23.1341 23.8906 22.3992 23.5333L19.2077 21.8405H28.0685C30.0867 21.8383 31.7219 20.2021 31.724 18.1839V4.59141C31.7229 2.57221 30.0877 0.935939 28.0685 0.932739ZM30.124 18.1818C30.124 19.3178 29.2045 20.2383 28.0685 20.2394H3.92987C2.79493 20.2383 1.87547 19.3178 1.8744 18.1829V4.59141C1.8744 3.45541 2.79387 2.53487 3.92987 2.53381H28.0685C29.2035 2.53487 30.1229 3.45541 30.124 4.59034V18.1818Z" fill="#7A7474"/>
<path d="M14.5891 7.69226H8.56666C8.12506 7.69226 7.76666 8.05066 7.76666 8.49226C7.76666 8.93386 8.12506 9.29226 8.56666 9.29226H10.7779V14.28C10.7779 14.7216 11.1363 15.08 11.5779 15.08C12.0195 15.08 12.3779 14.7216 12.3779 14.28V9.29226H14.5891C15.6355 9.28799 15.6355 7.69759 14.5891 7.69226Z" fill="#7A7474"/>
<path d="M23.7827 7.77325C23.3859 7.57912 22.9069 7.74445 22.7128 8.14125L20.6093 12.4527L18.5069 8.13912C18.0429 7.20045 16.6093 7.89805 17.0659 8.84312L19.8904 14.6308C20.1656 15.2122 21.052 15.2164 21.3283 14.6308L24.1507 8.84312C24.3448 8.44632 24.1795 7.96738 23.7827 7.77325Z" fill="#7A7474"/>
</svg>
