<svg width="30" height="21" viewBox="0 0 30 21" fill="none" xmlns="http://www.w3.org/2000/svg">
<path d="M27.6447 7.36938C20.932 1.00786 10.5966 0.67303 3.50344 6.366C3.10999 6.68182 2.72636 7.01626 2.35375 7.36938C1.95288 7.74924 1.31995 7.73231 0.940039 7.33142C0.560146 6.93055 0.577146 6.2976 0.978013 5.91771C1.39047 5.52683 1.81541 5.15634 2.25152 4.80628C10.118 -1.50734 21.5759 -1.13728 29.0204 5.91771C29.4212 6.2976 29.4383 6.93054 29.0584 7.3314C28.6785 7.73231 28.0455 7.74924 27.6447 7.36938Z" fill="#7A7474"/>
<path d="M4.95878 10.4922C10.504 4.94709 19.4944 4.94709 25.0396 10.4922C25.4302 10.8828 25.4302 11.516 25.0396 11.9065C24.6491 12.297 24.016 12.297 23.6255 11.9065C18.8614 7.14236 11.1371 7.14236 6.37299 11.9065C5.98246 12.297 5.3493 12.297 4.95878 11.9065C4.56824 11.516 4.56824 10.8828 4.95878 10.4922Z" fill="#7A7474"/>
<path d="M8.95878 14.8354C12.2948 11.4994 17.7036 11.4994 21.0396 14.8354C21.4302 15.2259 21.4302 15.8591 21.0396 16.2496C20.6491 16.6402 20.016 16.6402 19.6255 16.2496C17.0704 13.6946 12.928 13.6946 10.373 16.2496C9.98246 16.6402 9.3493 16.6402 8.95878 16.2496C8.56824 15.8591 8.56824 15.2259 8.95878 14.8354Z" fill="#7A7474"/>
<path d="M14.9992 20.6667C15.9196 20.6667 16.6659 19.9204 16.6659 19C16.6659 18.0795 15.9196 17.3334 14.9992 17.3334C14.0787 17.3334 13.3326 18.0795 13.3326 19C13.3326 19.9204 14.0787 20.6667 14.9992 20.6667Z" fill="#7A7474"/>
</svg>
